<?xml version="1.0" encoding="UTF-8"?> <svg xmlns:rdf="http://www.w3.org/1999/02/22-rdf-syntax-ns#" xmlns="http://www.w3.org/2000/svg" xmlns:cc="http://creativecommons.org/ns#" xmlns:dc="http://purl.org/dc/elements/1.1/" xmlns:svg="http://www.w3.org/2000/svg" xmlns:inkscape="http://www.inkscape.org/namespaces/inkscape" xmlns:sodipodi="http://sodipodi.sourceforge.net/DTD/sodipodi-0.dtd" xmlns:ns1="http://sozi.baierouge.fr" xmlns:xlink="http://www.w3.org/1999/xlink" id="svg3163" viewBox="0 0 100.63 112.31"><g id="layer1" stroke-linejoin="round" fill-rule="evenodd" transform="translate(-210.45 -504.83)" stroke="#000" stroke-linecap="square"><path id="path4363-1-21" d="m509.32 458.79c-112.67 4.96-160.3-69.76-108.26-169.81 52.05-100.06 140.57-103.95 201.2-8.85 60.62 95.1 19.73 173.71-92.94 178.66z" stroke-width="7.031" fill="#bb2f98" transform="matrix(-.11499 -.041510 -.052743 .15688 371.9 532.77)"></path><path id="path4363-0" d="m509.32 458.79c-112.67 4.96-160.3-69.76-108.26-169.81 52.05-100.06 140.57-103.95 201.2-8.85 60.62 95.1 19.73 173.71-92.94 178.66z" stroke-width="6.8274" fill="#bb2f98" transform="matrix(-.10415 .033874 .074286 .18182 252.91 490.74)"></path><path id="path4383-0" d="m556.55 466.45c-17.621-0.20253-4.8044-87.421-13.439-102.78-8.6349-15.361-89.808-49.746-80.822-64.905 8.9857-15.159 78.111 39.55 95.732 39.752 17.621 0.20254 87.985-52.903 96.62-37.542 8.6349 15.361-73.307 47.871-82.293 63.03-8.9857 15.159 1.8224 102.65-15.798 102.45z" stroke-width="7.7571" fill="#e5b302" transform="matrix(.17190 -.0047636 -.0031456 -.096593 167.19 647.47)"></path><path id="path4383-1-7" d="m556.55 466.45c-17.621-0.20253-4.8044-87.421-13.439-102.78-8.6349-15.361-89.808-49.746-80.822-64.905 8.9857-15.159 78.111 39.55 95.732 39.752 17.621 0.20254 87.985-52.903 96.62-37.542 8.6349 15.361-73.307 47.871-82.293 63.03-8.9857 15.159 1.8224 102.65-15.798 102.45z" stroke-width="7.7571" fill="#e5b302" transform="matrix(.17190 -.0047636 -.0031456 -.096593 177.1 646.74)"></path><path id="path4341-9" d="m412.31 599.21c-116.74 7.07-213.49-139.27-161.24-243.9 52.24-104.64 227.34-115.25 291.84-17.69s-13.87 254.51-130.6 261.59z" stroke-width="3.8166" fill="#d77eb4" transform="matrix(.26034 -.0072146 -.0085796 -.26345 160.79 675.08)"></path><path id="path3799-6" stroke-width="4.1718" transform="matrix(.25580 -.0072865 .0070938 .22441 283.58 423.02)" fill="#fff" d="m-272.67 524.66c-29.735-39.334-22.633-95.85 15.865-126.23 38.497-30.382 93.811-23.125 123.55 16.21 29.735 39.334 22.633 95.85-15.865 126.23-38.226 30.168-93.101 23.252-123.01-15.503"></path><path id="path4309-6" stroke-width="4.1569" transform="matrix(.25035 -.0069378 .0075209 .23094 191.83 415.38)" d="m157.28 527.59c-10.774-14.506-8.2002-35.349 5.7481-46.554s33.989-8.5282 44.763 5.978 8.2002 35.349-5.7481 46.554c-13.85 11.126-33.732 8.5752-44.568-5.7173"></path><path id="path3799-5-2" stroke-width="4.0007" transform="matrix(-.26375 .0074224 .0075846 .23668 228.67 416.99)" fill="#fff" d="m-272.67 524.66c-29.735-39.334-22.633-95.85 15.865-126.23 38.497-30.382 93.811-23.125 123.55 16.21 29.735 39.334 22.633 95.85-15.865 126.23-38.226 30.168-93.101 23.252-123.01-15.503"></path><path id="path4309-7-9" stroke-width="4.1569" transform="matrix(-.25035 .0069378 .0075209 .23094 321.81 410.2)" d="m157.28 527.59c-10.774-14.506-8.2002-35.349 5.7481-46.554s33.989-8.5282 44.763 5.978 8.2002 35.349-5.7481 46.554c-13.85 11.126-33.732 8.5752-44.568-5.7173"></path><path id="path4339-4" d="m-49.783 512.41c-30.644 119.17-66.048 129.04-153.93 42.918-87.882-86.123-78.729-121.72 39.797-154.77 118.53-33.047 144.78-7.3216 114.13 111.85z" stroke-width="11.345" fill="#ffc600" transform="matrix(.096050 .015916 -.020275 .077536 285.54 517.64)"></path></g><metadata></metadata></svg> 